<?xml version="1.0" standalone="no"?>
<!DOCTYPE svg PUBLIC "-//W3C//DTD SVG 20010904//EN"
 "http://www.w3.org/TR/2001/REC-SVG-20010904/DTD/svg10.dtd">
<svg version="1.0" xmlns="http://www.w3.org/2000/svg"
 width="512.000000pt" height="512.000000pt" viewBox="0 0 512.000000 512.000000"
 preserveAspectRatio="xMidYMid meet">
<metadata>
Created by potrace 1.11, written by Peter Selinger 2001-2013
</metadata>
<g transform="translate(0.000000,512.000000) scale(0.100000,-0.100000)"
fill="#000000" stroke="none">
<path d="M2194 5105 c-1133 -166 -2011 -1047 -2178 -2186 -22 -147 -22 -571 0
-718 79 -539 318 -1032 689 -1420 400 -416 923 -684 1497 -766 140 -20 566
-20 706 0 974 138 1775 810 2083 1745 90 276 124 491 124 800 0 309 -34 524
-124 800 -308 935 -1109 1607 -2083 1745 -133 19 -584 19 -714 0z m987 -966
c52 -16 108 -64 130 -113 14 -31 19 -65 19 -143 l0 -103 -79 0 -79 0 -3 78
c-4 68 -8 84 -33 116 -52 68 -38 67 -619 64 l-522 -3 -34 -24 c-46 -33 -71
-92 -71 -168 l0 -63 -80 0 -80 0 0 102 c0 83 4 110 21 145 23 48 71 91 121
110 46 16 1254 18 1309 2z m977 -493 c26 -18 51 -47 67 -79 l25 -51 0 -320 c0
-197 -4 -336 -11 -360 -17 -60 -85 -121 -150 -136 -39 -8 -245 -10 -723 -8
l-669 3 -4 39 c-14 134 -155 200 -260 121 -41 -32 -56 -58 -63 -115 l-5 -45
-700 0 -700 0 -42 22 c-47 25 -84 71 -102 122 -7 23 -11 141 -11 353 0 351 2
362 63 427 62 65 -58 61 1668 58 l1576 -2 41 -29z m-1569 -902 c18 -23 21 -41
21 -126 0 -92 -2 -101 -25 -123 -15 -16 -36 -25 -55 -25 -19 0 -40 9 -55 25
-23 22 -25 31 -25 123 0 85 3 103 21 126 16 20 29 26 59 26 30 0 43 -6 59 -26z
m1561 -1074 c2 -445 0 -530 -12 -560 -20 -47 -88 -106 -136 -120 -28 -7 -487
-9 -1494 -8 l-1453 3 -48 28 c-30 18 -54 42 -67 68 -20 38 -21 62 -26 702 -3
364 -6 681 -8 705 -2 23 -2 42 0 42 1 0 24 -11 51 -25 l48 -24 460 14 c253 8
560 17 681 21 l221 7 5 -55 c5 -63 27 -97 79 -127 75 -43 183 -14 220 59 10
20 20 55 23 80 l4 44 98 -2 c55 -1 234 -7 399 -12 880 -30 846 -30 872 -13 13
9 34 30 46 47 l22 31 6 -190 c4 -104 8 -426 9 -715z"/>
</g>
</svg>
